<svg t="1583599019815" class="icon" viewBox="0 0 1024 1024" version="1.1"
  xmlns="http://www.w3.org/2000/svg" p-id="3920" width="32" height="32">
  <path d="M813.653333 802.986667a42.666667 42.666667 0 0 1-60.373333 0L512 561.706667 270.72 802.986667a42.666667 42.666667 0 1 1-60.373333-60.373334L451.626667 501.333333 210.346667 260.053333a42.666667 42.666667 0 0 1 30.293333-72.746666 42.666667 42.666667 0 0 1 30.08 12.373333L512 440.96 753.28 199.68a42.666667 42.666667 0 0 1 72.746667 30.293333 42.666667 42.666667 0 0 1-12.373334 30.08L572.373333 501.333333l241.28 241.28a42.666667 42.666667 0 0 1 0 60.373334z" p-id="3921"></path>
</svg>