<svg t="1584954282691" class="icon" viewBox="0 0 1024 1024" version="1.1"
  xmlns="http://www.w3.org/2000/svg" p-id="2076" width="32" height="32">
  <path d="M512 298.666667c-25.6 0-42.666667-17.066667-42.666667-42.666667V85.333333c0-25.6 17.066667-42.666667 42.666667-42.666666s42.666667 17.066667 42.666667 42.666666v170.666667c0 25.6-17.066667 42.666667-42.666667 42.666667zM512 981.333333c-25.6 0-42.666667-17.066667-42.666667-42.666666v-170.666667c0-25.6 17.066667-42.666667 42.666667-42.666667s42.666667 17.066667 42.666667 42.666667v170.666667c0 25.6-17.066667 42.666667-42.666667 42.666666zM332.8 375.466667c-12.8 0-21.333333-4.266667-29.866667-12.8L179.2 238.933333c-17.066667-17.066667-17.066667-42.666667 0-59.733333s42.666667-17.066667 59.733333 0L358.4 298.666667c17.066667 17.066667 17.066667 42.666667 0 59.733333-4.266667 12.8-17.066667 17.066667-25.6 17.066667zM814.933333 857.6c-12.8 0-21.333333-4.266667-29.866666-12.8L665.6 725.333333c-17.066667-17.066667-17.066667-42.666667 0-59.733333s42.666667-17.066667 59.733333 0l119.466667 119.466667c17.066667 17.066667 17.066667 42.666667 0 59.733333-8.533333 8.533333-21.333333 12.8-29.866667 12.8zM256 554.666667H85.333333c-25.6 0-42.666667-17.066667-42.666666-42.666667s17.066667-42.666667 42.666666-42.666667h170.666667c25.6 0 42.666667 17.066667 42.666667 42.666667s-17.066667 42.666667-42.666667 42.666667zM938.666667 554.666667h-170.666667c-25.6 0-42.666667-17.066667-42.666667-42.666667s17.066667-42.666667 42.666667-42.666667h170.666667c25.6 0 42.666667 17.066667 42.666666 42.666667s-17.066667 42.666667-42.666666 42.666667zM209.066667 857.6c-12.8 0-21.333333-4.266667-29.866667-12.8-17.066667-17.066667-17.066667-42.666667 0-59.733333L298.666667 665.6c17.066667-17.066667 42.666667-17.066667 59.733333 0s17.066667 42.666667 0 59.733333l-119.466667 119.466667c-8.533333 8.533333-17.066667 12.8-29.866666 12.8zM691.2 375.466667c-12.8 0-21.333333-4.266667-29.866667-12.8-17.066667-17.066667-17.066667-42.666667 0-59.733334l119.466667-119.466666c17.066667-17.066667 42.666667-17.066667 59.733333 0s17.066667 42.666667 0 59.733333l-119.466666 119.466667c-4.266667 8.533333-17.066667 12.8-29.866667 12.8z" p-id="2077"></path>
</svg>