<svg t="1583413786976" class="icon" viewBox="0 0 1024 1024" version="1.1"
  xmlns="http://www.w3.org/2000/svg" p-id="3272" width="32" height="32">
  <path d="M790.4 150.4C716.8 76.8 617.6 32 512 32 406.4 28.8 310.4 70.4 233.6 144c-153.6 153.6-153.6 406.4 0 563.2 86.4 89.6 140.8 156.8 176 201.6 44.8 57.6 67.2 86.4 102.4 86.4s57.6-28.8 102.4-83.2c35.2-44.8 89.6-108.8 176-195.2 153.6-156.8 153.6-409.6 0-566.4z m-48 518.4c-89.6 89.6-144 156.8-179.2 201.6-22.4 25.6-41.6 51.2-54.4 57.6-9.6-6.4-32-35.2-51.2-60.8-35.2-44.8-89.6-115.2-179.2-204.8-128-131.2-128-342.4 3.2-470.4 60.8-60.8 144-96 230.4-96h3.2c89.6 0 172.8 35.2 233.6 99.2 124.8 131.2 124.8 342.4-6.4 473.6z" p-id="3273"></path>
  <path d="M508.8 284.8c-44.8 0-86.4 16-118.4 48s-48 73.6-48 118.4c0 44.8 16 86.4 48 118.4s73.6 48 118.4 48c44.8 0 86.4-16 118.4-48s48-73.6 48-118.4c0-44.8-16-86.4-48-118.4s-73.6-48-118.4-48z m73.6 240c-38.4 38.4-105.6 38.4-147.2 0-19.2-19.2-28.8-44.8-28.8-73.6 0-28.8 9.6-54.4 28.8-73.6 19.2-19.2 44.8-28.8 73.6-28.8s54.4 9.6 73.6 28.8c19.2 19.2 28.8 44.8 28.8 73.6 3.2 28.8-9.6 54.4-28.8 73.6z" p-id="3274"></path>
</svg>