<svg t="1585448962420" class="icon" viewBox="0 0 1024 1024" version="1.1"
  xmlns="http://www.w3.org/2000/svg" p-id="3256" width="32" height="32">
  <path d="M510.798639 124.660184c-213.447347 0-386.480238 173.029822-386.480238 386.480238 0 213.446323 173.029822 386.475122 386.480238 386.475122 213.446323 0 386.475122-173.029822 386.475122-386.475122C897.274784 297.690006 724.244962 124.660184 510.798639 124.660184L510.798639 124.660184 510.798639 124.660184zM510.798639 864.019379c-194.883549 0-352.884073-158.001547-352.884073-352.879979 0-194.883549 158.000524-352.884073 352.884073-352.884073 194.878432 0 352.883049 158.000524 352.883049 352.884073C863.678618 706.017832 705.677071 864.019379 510.798639 864.019379L510.798639 864.019379 510.798639 864.019379zM588.978209 546.374902c-17.681708 0-31.070646 15.915481-47.113017 15.915481-15.910365 0-85.756129-68.836785-85.756129-85.761246 0-16.920368 15.914458-25.258267 15.914458-42.813085 0-12.632715-47.107901-89.925079-66.432015-89.925079-19.328207 0-66.436108 34.479279-66.436108 66.433038 0 92.455715 170.506349 269.653463 277.230022 269.653463 29.427216 0 66.437132-31.070646 66.437132-66.437132C683.071214 600.178295 606.532003 546.374902 588.978209 546.374902" p-id="3257"></path>
</svg>