<svg t="1583599169681" class="icon" viewBox="0 0 1024 1024" version="1.1"
  xmlns="http://www.w3.org/2000/svg" p-id="2771" width="32" height="32">
  <path d="M925.918 211.615c-0.818 1.126-2.763 2.251-3.786 3.172L674.907 459.966v402.662c0 46.355-35.508 84.012-81.965 84.012-21.49 0-39.704-8.187-55.36-22.922a19.29 19.29 0 0 1-3.172-2.558l-68.765-67.946c-8.493-8.391-8.595-22-0.204-30.596l29.266-29.47c8.288-8.085 21.59-8.187 29.982-0.103l62.83 65.08c0.92 0.82 1.33 1.638 2.455 2.661-0.614-172.832-0.818-378.615-0.818-419.75v-7.266c0-5.73 5.116-11.563 9.21-15.554l264.211-261.96c0.716-0.922 1.535-3.48 2.354-3.48H159.888c0.819 0 0.716 2.456 1.33 3.377l260.426 262.472c4.093 4.093 4.502 9.517 4.502 15.247v172.219c0 0.205 0.614 0.512 0.614 0.716-0.511 23.331-18.726 41.853-41.647 41.853-23.331 0-44.82-19.034-44.82-42.364v-146.33L97.877 214.378c-0.92-0.921 0.614-2.456-0.102-3.48-14.838-15.86-23.126-36.735-23.024-58.429 0-46.354 37.657-85.649 83.91-85.649h707.6c22.41 0 43.49 10.336 59.35 26.196 15.861 15.861 24.047 37.76 24.047 60.17-0.204 21.59-8.902 42.773-23.74 58.43zM388.183 665.851c25.786 0.92 45.945 22.512 45.024 48.299-0.818 24.559-20.568 44.206-45.024 45.024-25.787-0.92-45.946-22.512-45.025-48.299 0.819-24.456 20.466-44.206 45.025-45.024z" p-id="2772"></path>
</svg>