<svg t="1585530876550" class="icon" viewBox="0 0 1024 1024" version="1.1"
  xmlns="http://www.w3.org/2000/svg" p-id="4437" width="32" height="32">
  <path fill='#4fa7f0' d="M314.624 786.176C370.944 840.96 436.736 898.816 512 960a2982.208 2982.208 0 0 0 197.376-173.824C821.184 808.576 896 849.344 896 896c0 70.72-171.904 128-384 128s-384-57.28-384-128c0-46.656 74.816-87.424 186.624-109.824zM512 832C298.688 608.512 192 437.76 192 320a320 320 0 1 1 640 0c0 117.76-106.688 288.512-320 512z m0-384a128 128 0 1 0 0-256 128 128 0 0 0 0 256z" p-id="4438"></path>
</svg>